<svg width="32" height="32" viewBox="0 0 32 32" fill="none" xmlns="http://www.w3.org/2000/svg">
<g clip-path="url(#clip0_42_1433)">
<path d="M30 2.9965L21.993 2.99653V1.00353C21.993 0.451032 21.5455 0.00353241 20.993 0.00353241C20.4405 0.00353241 19.993 0.451032 19.993 1.00353V2.99603H11.993V1.00353C11.993 0.451032 11.5455 0.00353241 10.993 0.00353241C10.4405 0.00353241 9.993 0.451032 9.993 1.00353V2.99603H2C0.8955 2.99603 0 3.89153 0 4.99603V29.996C0 31.1005 0.8955 31.996 2 31.996H30C31.1045 31.996 32 31.1005 32 29.996V4.99603C32 3.892 31.1045 2.9965 30 2.9965ZM30 29.996H2V4.99603H9.993V6.00353C9.993 6.556 10.4405 7.00353 10.993 7.00353C11.5455 7.00353 11.993 6.556 11.993 6.00353V4.99653H19.993V6.00403C19.993 6.55653 20.4405 7.00403 20.993 7.00403C21.5455 7.00403 21.993 6.55653 21.993 6.00403V4.99653H30V29.996ZM23 15.9965H25C25.552 15.9965 26 15.5485 26 14.9965V12.9965C26 12.4445 25.552 11.9965 25 11.9965H23C22.448 11.9965 22 12.4445 22 12.9965V14.9965C22 15.5485 22.448 15.9965 23 15.9965ZM23 23.996H25C25.552 23.996 26 23.5485 26 22.996V20.996C26 20.444 25.552 19.996 25 19.996H23C22.448 19.996 22 20.444 22 20.996V22.996C22 23.549 22.448 23.996 23 23.996ZM17 19.996H15C14.448 19.996 14 20.444 14 20.996V22.996C14 23.5485 14.448 23.996 15 23.996H17C17.552 23.996 18 23.5485 18 22.996V20.996C18 20.4445 17.552 19.996 17 19.996ZM17 11.9965H15C14.448 11.9965 14 12.4445 14 12.9965V14.9965C14 15.5485 14.448 15.9965 15 15.9965H17C17.552 15.9965 18 15.5485 18 14.9965V12.9965C18 12.444 17.552 11.9965 17 11.9965ZM9 11.9965H7C6.448 11.9965 6 12.4445 6 12.9965V14.9965C6 15.5485 6.448 15.9965 7 15.9965H9C9.552 15.9965 10 15.5485 10 14.9965V12.9965C10 12.444 9.552 11.9965 9 11.9965ZM9 19.996H7C6.448 19.996 6 20.444 6 20.996V22.996C6 23.5485 6.448 23.996 7 23.996H9C9.552 23.996 10 23.5485 10 22.996V20.996C10 20.4445 9.552 19.996 9 19.996Z" fill="#444444"/>
</g>
<defs>
<clipPath id="clip0_42_1433">
<rect width="32" height="32" fill="white"/>
</clipPath>
</defs>
</svg>
